<svg width="178" height="226" viewBox="0 0 178 226" fill="none" xmlns="http://www.w3.org/2000/svg">
<path fill-rule="evenodd" clip-rule="evenodd" d="M111.366 0.392957C110.983 0.87458 89.1562 44.7238 89.1562 45.0108C89.1562 45.1195 104.165 45.2086 122.51 45.2086H155.864L166.913 22.7987C172.99 10.4734 177.878 0.304456 177.776 0.201205C177.675 0.0979544 162.763 0.00752985 144.639 0.000796098C118.469 -0.0091442 111.621 0.07134 111.366 0.392957ZM0 67.8148V90.4209H33.3226H66.6455L71.6294 80.4005C85.4932 52.5266 88.84 45.7367 88.84 45.4844C88.84 45.3317 68.9835 45.2086 44.42 45.2086H0V67.8148ZM55.6436 113.023L44.42 135.624L22.21 135.628L0 135.633V158.239V180.846H11.0658H22.1319L11.0614 203.3C3.60419 218.425 0.121404 225.804 0.39077 225.908C0.610499 225.992 35.6467 226.025 78.2488 225.98L155.707 225.897L166.854 203.372L178 180.846H100.224C57.4466 180.846 22.4497 180.737 22.4531 180.605C22.4563 180.473 27.4064 170.336 33.4529 158.079L44.4469 135.794L89.0117 135.633L133.576 135.473L144.723 112.947L155.869 90.4209L111.368 90.4212L66.8671 90.4216L55.6436 113.023Z" fill="black"/>
</svg>
