<svg width="372" height="105" viewBox="0 0 372 105" fill="none" xmlns="http://www.w3.org/2000/svg">
<path fill-rule="evenodd" clip-rule="evenodd" d="M57.6891 36.0312C57.6387 36.0951 54.7597 41.916 54.7597 41.9541C54.7597 41.9686 56.7394 41.9804 59.1591 41.9804H63.5585L65.0158 39.0055C65.8174 37.3693 66.4622 36.0194 66.4487 36.0057C66.4353 35.992 64.4685 35.98 62.078 35.9791C58.6261 35.9778 57.7229 35.9885 57.6891 36.0312ZM43 44.9814V47.9823H47.3953H51.7906L52.4479 46.6521C54.2766 42.9519 54.718 42.0505 54.718 42.017C54.718 41.9968 52.0989 41.9804 48.859 41.9804H43V44.9814ZM50.3394 50.9827L48.859 53.9829L45.9295 53.9836L43 53.9842V56.9852V59.9861H44.4596H45.9192L44.459 62.9669C43.4754 64.9748 43.016 65.9543 43.0515 65.9681C43.0805 65.9793 47.7018 65.9836 53.321 65.9776L63.5378 65.9667L65.008 62.9764L66.4782 59.9861H56.2195C50.5772 59.9861 45.9611 59.9718 45.9616 59.9542C45.962 59.9366 46.6149 58.591 47.4124 56.9639L48.8625 54.0055L54.7407 53.9842L60.6187 53.9629L62.0889 50.9726L63.5591 47.9823L57.6895 47.9824L51.8198 47.9824L50.3394 50.9827Z" fill="white"/>
<path d="M304.134 66.3722C294.146 66.3722 292.908 59.2583 292.908 54.8839C292.908 47.9467 295.648 43.3955 302.454 43.3955C309.26 43.3955 312 47.5048 312 54.442V56.8723H297.416C297.725 59.9653 298.963 62.3955 304.134 62.3955C305.901 62.3955 307.625 62.3955 310.498 61.6002V65.4885C307.05 66.3723 305.813 66.3722 304.134 66.3722ZM297.328 52.8955H307.581C307.492 49.0513 306.034 47.3723 302.454 47.3723C299.051 47.3723 297.549 49.3164 297.328 52.8955Z" fill="white"/>
<path d="M284.054 43.8374H288.473V73.0002H271.679V69.0234H284.054V61.9537C282.728 63.4118 280.562 64.6048 277.469 64.6048C270.309 64.6048 267.79 59.6118 267.79 54.0002C267.79 48.3885 270.309 43.3955 277.469 43.3955C280.562 43.3955 282.728 44.5885 284.054 46.4885V43.8374ZM278.132 60.6281C282.463 60.6281 284.054 58.8606 284.054 54.0002C284.054 49.5816 282.463 47.3723 278.132 47.3723C273.8 47.3723 272.209 49.5816 272.209 54.0002C272.209 58.4188 273.8 60.6281 278.132 60.6281Z" fill="white"/>
<path d="M258.935 46.4884V35H263.354V65.9302H258.935V63.2791C257.609 65.1791 255.444 66.3721 252.35 66.3721C245.19 66.3721 242.671 61.3791 242.671 54.8837C242.671 48.3884 245.19 43.3953 252.35 43.3953C255.444 43.3953 257.609 44.5884 258.935 46.4884ZM253.013 62.3953C257.344 62.3953 258.935 60.186 258.935 54.8837C258.935 49.5814 257.344 47.3721 253.013 47.3721C248.682 47.3721 247.091 49.5814 247.091 54.8837C247.091 60.186 248.682 62.3953 253.013 62.3953Z" fill="white"/>
<path d="M224.194 61.9531H239.132V65.9298H219.775V35.8833H239.132V39.86H224.194V48.4763H235.596V52.4531H224.194V61.9531Z" fill="white"/>
<path d="M199.438 47.8137H190.953V65.9299H186.533V43.8369H199.438V47.8137Z" fill="white"/>
<path d="M176.79 35H181.209V39.4186H176.79V35ZM176.79 43.8372H181.209V65.9302H176.79V43.8372Z" fill="white"/>
<path d="M152.922 35H157.342V43.8372H171.484V65.9302H167.065V47.814H157.342V65.9302H152.922V35Z" fill="white"/>
<path d="M141.781 61.9535H147.614V65.9302H137.361V47.814H133.826V43.8372H137.361V35H141.781V43.8372H147.614V47.814H141.781V61.9535Z" fill="white"/>
<path d="M123.299 66.3722C113.311 66.3722 112.074 59.2583 112.074 54.8839C112.074 47.9467 114.814 43.3955 121.62 43.3955C128.426 43.3955 131.166 47.5048 131.166 54.442V56.8723H116.582C116.891 59.9653 118.128 62.3955 123.299 62.3955C125.067 62.3955 126.79 62.3955 129.663 61.6002V65.4885C126.216 66.3723 124.978 66.3722 123.299 66.3722ZM116.493 52.8955H126.746C126.658 49.0513 125.199 47.3723 121.62 47.3723C118.217 47.3723 116.714 49.3164 116.493 52.8955Z" fill="white"/>
<path d="M100.386 35.8833L109.843 65.9298H105.203L103.037 58.86H90.7512L88.5857 65.9298H83.9453L93.4029 35.8833H100.386ZM97.2478 39.9926H96.5407L91.9887 54.8833H101.8L97.2478 39.9926Z" fill="white"/>
</svg>
